<mxfile host="app.diagrams.net" modified="2021-12-23T19:55:15.526Z" agent="5.0 (Windows NT 10.0; Win64; x64) AppleWebKit/537.36 (KHTML, like Gecko) Chrome/96.0.4664.110 Safari/537.36 Edg/96.0.1054.62" etag="t4YZI3CHccExD7ku8gSF" version="16.0.3" type="github">
  <diagram id="x-eCoYUIMHcj22K13xYS" name="Page-1">
    <mxGraphModel dx="782" dy="738" grid="1" gridSize="10" guides="1" tooltips="1" connect="1" arrows="1" fold="1" page="1" pageScale="1" pageWidth="827" pageHeight="1169" math="0" shadow="0">
      <root>
        <mxCell id="0" />
        <mxCell id="1" parent="0" />
        <mxCell id="15lj-LPrfB2Xkm7jObaA-9" value="" style="edgeStyle=orthogonalEdgeStyle;rounded=0;orthogonalLoop=1;jettySize=auto;html=1;" edge="1" parent="1" source="15lj-LPrfB2Xkm7jObaA-2" target="15lj-LPrfB2Xkm7jObaA-6">
          <mxGeometry relative="1" as="geometry" />
        </mxCell>
        <mxCell id="15lj-LPrfB2Xkm7jObaA-2" value="Index.php" style="swimlane;fontStyle=0;childLayout=stackLayout;horizontal=1;startSize=30;horizontalStack=0;resizeParent=1;resizeParentMax=0;resizeLast=0;collapsible=1;marginBottom=0;" vertex="1" parent="1">
          <mxGeometry x="290" y="330" width="140" height="90" as="geometry" />
        </mxCell>
        <mxCell id="15lj-LPrfB2Xkm7jObaA-3" value="bd connect" style="text;strokeColor=none;fillColor=none;align=left;verticalAlign=middle;spacingLeft=4;spacingRight=4;overflow=hidden;points=[[0,0.5],[1,0.5]];portConstraint=eastwest;rotatable=0;" vertex="1" parent="15lj-LPrfB2Xkm7jObaA-2">
          <mxGeometry y="30" width="140" height="30" as="geometry" />
        </mxCell>
        <mxCell id="15lj-LPrfB2Xkm7jObaA-4" value="render" style="text;strokeColor=none;fillColor=none;align=left;verticalAlign=middle;spacingLeft=4;spacingRight=4;overflow=hidden;points=[[0,0.5],[1,0.5]];portConstraint=eastwest;rotatable=0;" vertex="1" parent="15lj-LPrfB2Xkm7jObaA-2">
          <mxGeometry y="60" width="140" height="30" as="geometry" />
        </mxCell>
        <mxCell id="15lj-LPrfB2Xkm7jObaA-6" value="bd connect" style="swimlane;fontStyle=0;childLayout=stackLayout;horizontal=1;startSize=30;horizontalStack=0;resizeParent=1;resizeParentMax=0;resizeLast=0;collapsible=1;marginBottom=0;" vertex="1" parent="1">
          <mxGeometry x="70" y="345" width="140" height="60" as="geometry" />
        </mxCell>
        <mxCell id="15lj-LPrfB2Xkm7jObaA-14" style="edgeStyle=orthogonalEdgeStyle;rounded=0;orthogonalLoop=1;jettySize=auto;html=1;entryX=0;entryY=0.25;entryDx=0;entryDy=0;" edge="1" parent="1" source="15lj-LPrfB2Xkm7jObaA-4" target="15lj-LPrfB2Xkm7jObaA-15">
          <mxGeometry relative="1" as="geometry">
            <mxPoint x="500" y="405" as="targetPoint" />
          </mxGeometry>
        </mxCell>
        <mxCell id="15lj-LPrfB2Xkm7jObaA-15" value="render" style="swimlane;fontStyle=0;childLayout=stackLayout;horizontal=1;startSize=30;horizontalStack=0;resizeParent=1;resizeParentMax=0;resizeLast=0;collapsible=1;marginBottom=0;" vertex="1" parent="1">
          <mxGeometry x="510" y="382" width="140" height="90" as="geometry" />
        </mxCell>
        <mxCell id="15lj-LPrfB2Xkm7jObaA-16" value="render layout" style="text;strokeColor=none;fillColor=none;align=left;verticalAlign=middle;spacingLeft=4;spacingRight=4;overflow=hidden;points=[[0,0.5],[1,0.5]];portConstraint=eastwest;rotatable=0;" vertex="1" parent="15lj-LPrfB2Xkm7jObaA-15">
          <mxGeometry y="30" width="140" height="30" as="geometry" />
        </mxCell>
        <mxCell id="15lj-LPrfB2Xkm7jObaA-17" value="render content" style="text;strokeColor=none;fillColor=none;align=left;verticalAlign=middle;spacingLeft=4;spacingRight=4;overflow=hidden;points=[[0,0.5],[1,0.5]];portConstraint=eastwest;rotatable=0;" vertex="1" parent="15lj-LPrfB2Xkm7jObaA-15">
          <mxGeometry y="60" width="140" height="30" as="geometry" />
        </mxCell>
      </root>
    </mxGraphModel>
  </diagram>
</mxfile>
